<svg xmlns="http://www.w3.org/2000/svg" xmlns:xlink="http://www.w3.org/1999/xlink" viewBox="0 0 350 330">
  <g id="airship">
    <g id="airship-body" opacity="1">
      <animate attributeName="opacity" from="1" to="0" dur="0.2s" repeatCount="1" begin="3s" fill="freeze" />

      <g transform-origin="175 165">
        <animateTransform attributeName="transform" type="scale" values="1, 0.97; 1, 1; 1, 0.92; 1, 1; 1, 0.97"
          keyTimes="0; 0.25; 0.5; 0.75; 1" dur="2s" repeatCount="2" begin="0s" additive="sum" />
        <animateTransform attributeName="transform" type="translate" values="0, -3; 0, 0; 0, -3" keyTimes="0; 0.5; 1"
          dur="1s" repeatCount="4" begin="0s" additive="sum" />
        <animateTransform attributeName="transform" type="skewZ" values="2; 0; 2" keyTimes="0; 0.5; 1" dur="1s"
          repeatCount="4" begin="0s" fill="freeze" additive="sum" />

        <path d="M175.44,249.28h48.36a13.27,13.27,0,0,0,13-10.65l3.74-18.32H172.36v25.89A3.09,3.09,0,0,0,175.44,249.28Z"
          fill="none" stroke="#fff" stroke-linecap="round" stroke-linejoin="round" stroke-width="2" />
        <path d="M235.79,241.69h-9.22a8.31,8.31,0,0,1-8.28-8.31V220.31" fill="none" stroke="#fff" stroke-linecap="round"
          stroke-miterlimit="10" stroke-width="2" />
        <path
          d="M185.64,231.88h-2.05a3.45,3.45,0,0,0-3.43,3.45v2.92a3.45,3.45,0,0,0,3.43,3.45h2.05a3.45,3.45,0,0,0,3.43-3.45v-2.92A3.45,3.45,0,0,0,185.64,231.88Z"
          fill="none" stroke="#fff" stroke-linecap="round" stroke-linejoin="round" stroke-width="2" />
        <path id="window"
          d="M204.25,231.88h-2.05a3.45,3.45,0,0,0-3.43,3.45v2.92a3.45,3.45,0,0,0,3.43,3.45h2.05a3.45,3.45,0,0,0,3.43-3.45v-2.92A3.44,3.44,0,0,0,204.25,231.88Z"
          fill="none" stroke="#fff" stroke-linecap="round" stroke-linejoin="round" opacity="1" stroke-width="2">
          <animate attributeName="opacity" from="1" to="0" begin="2.9s" repeatCount="1" fill="freeze" />
        </path>
      </g>

      <g class="airship-body">
        <path
          d="M205,227.08c43.38,0,74.86-15.55,74.86-37s-31.48-37-74.86-37c-27.94,0-55.36,13.53-73.46,24.87a14.3,14.3,0,0,0,0,24.21c18.09,11.33,45.52,24.87,73.46,24.87"
          fill="#068e4d" />
        <path
          d="M205,227.08c43.38,0,74.86-15.55,74.86-37s-31.48-37-74.86-37c-27.94,0-55.36,13.53-73.46,24.87a14.3,14.3,0,0,0,0,24.21C149.63,213.54,177.06,227.08,205,227.08Z"
          fill="none" stroke="#fff" stroke-width="2" />
        <path
          d="M 205 176.09 C 176.77 176.09 148.93 181.85 132.19 186.09 C 128.24 187.09 126.19 188.75 126.11 190.43 C 126.028 188.16 126.547 185.907 127.612 183.901 C 128.678 181.894 130.253 180.204 132.18 179 C 148.92 168.5 176.76 154.32 204.99 154.32 C 249.8 154.32 278.63 170.32 278.63 190.07 C 278.63 190.19 278.63 190.31 278.63 190.44 C 278.26 182.49 249.53 176.07 205 176.07"
          fill="#36e69a">
          <animate attributeName="d"
            values="M 205 176.09 C 176.77 176.09 148.93 181.85 132.19 186.09 C 128.24 187.09 126.19 188.75 126.11 190.43 C 126.028 188.16 126.547 185.907 127.612 183.901 C 128.678 181.894 130.253 180.204 132.18 179 C 148.92 168.5 176.76 154.32 204.99 154.32 C 249.8 154.32 278.63 170.32 278.63 190.07 C 278.63 190.19 278.63 190.31 278.63 190.44 C 278.26 182.49 249.53 176.07 205 176.07;
            M 205 180.376 C 176.77 180.376 150.488 186.525 133.748 190.765 C 129.798 191.765 124.242 210.568 124.162 212.248 C 124.079 209.938 124.421 202.433 125.274 195.2 C 126.128 187.966 127.492 181.004 129.453 179.779 C 146.193 169.279 176.76 154.32 204.99 154.32 C 249.8 154.32 278.63 170.32 278.63 190.07 C 278.63 192.401 278.63 194.732 278.63 197.063 C 278.26 189.113 249.53 180.356 205 180.356;
            M 205 176.09 C 176.77 176.09 148.93 181.85 132.19 186.09 C 128.24 187.09 126.19 188.75 126.11 190.43 C 126.028 188.16 126.547 185.907 127.612 183.901 C 128.678 181.894 130.253 180.204 132.18 179 C 148.92 168.5 176.76 154.32 204.99 154.32 C 249.8 154.32 278.63 170.32 278.63 190.07 C 278.63 190.19 278.63 190.31 278.63 190.44 C 278.26 182.49 249.53 176.07 205 176.07"
            keyTimes="0; 0.5; 1" dur="2s" begin="0s" repeatCount="3" fill="freeze" />
        </path>
        <path
          d="M132.18,195.12c16.74,4.27,44.58,10,72.81,10,44.14,0,72.75-6.32,73.6-14.18-0.86,19.34-29.45,34.86-73.6,34.86-28.23,0-56.07-14.19-72.81-24.68a12.88,12.88,0,0,1-6-10.18c0.26,1.61,2.26,3.18,6,4.14"
          fill="#068e4d" />

        <path
          d="M 132.18 181.227 C 148.92 176.384 176.76 169.886 204.99 169.886 C 249.52 169.886 278.25 177.178 278.6 186.194 C 278.6 186.387 278.6 186.58 278.6 186.773 C 277.75 195.686 249.54 199.725 205.39 199.725 C 198.332 199.725 191.275 199.512 184.397 199.117 C 177.519 198.721 170.82 198.144 164.481 197.417 C 158.142 196.689 152.161 195.812 146.72 194.815 C 141.278 193.819 136.375 192.704 132.19 191.502 C 128.4 190.368 126.4 188.632 126.19 186.818 C 126.19 186.625 126.19 186.432 126.19 186.24 C 126.32 184.323 128.34 182.429 132.29 181.284"
          fill="#25b774">
          <animate attributeName="d"
            values="M 132.18 181.227 C 148.92 176.384 176.76 169.886 204.99 169.886 C 249.52 169.886 278.25 177.178 278.6 186.194 C 278.6 186.387 278.6 186.58 278.6 186.773 C 277.75 195.686 249.54 199.725 205.39 199.725 C 198.332 199.725 191.275 199.512 184.397 199.117 C 177.519 198.721 170.82 198.144 164.481 197.417 C 158.142 196.689 152.161 195.812 146.72 194.815 C 141.278 193.819 136.375 192.704 132.19 191.502 C 128.4 190.368 126.4 188.632 126.19 186.818 C 126.19 186.625 126.19 186.432 126.19 186.24 C 126.32 184.323 128.34 182.429 132.29 181.284;
          M 132.18 191.223 C 148.92 186.438 176.76 180.016 204.99 180.016 C 249.52 180.016 278.25 187.222 278.6 196.131 C 278.6 196.322 278.6 196.512 278.6 196.703 C 277.75 205.511 249.15 212.583 205 212.583 C 176.77 212.583 148.93 206.128 132.19 201.376 C 128.4 200.255 126.4 198.541 126.19 196.748 C 126.19 196.557 126.19 196.367 126.19 196.176 C 126.222 195.703 126.373 195.231 126.642 194.771 C 126.912 194.312 127.3 193.865 127.808 193.442 C 128.315 193.019 128.942 192.619 129.689 192.255 C 130.436 191.891 131.303 191.562 132.29 191.279;
          M 132.18 181.227 C 148.92 176.384 176.76 169.886 204.99 169.886 C 249.52 169.886 278.25 177.178 278.6 186.194 C 278.6 186.387 278.6 186.58 278.6 186.773 C 277.75 195.686 249.54 199.725 205.39 199.725 C 198.332 199.725 191.275 199.512 184.397 199.117 C 177.519 198.721 170.82 198.144 164.481 197.417 C 158.142 196.689 152.161 195.812 146.72 194.815 C 141.278 193.819 136.375 192.704 132.19 191.502 C 128.4 190.368 126.4 188.632 126.19 186.818 C 126.19 186.625 126.19 186.432 126.19 186.24 C 126.32 184.323 128.34 182.429 132.29 181.284"
            keyTimes="0; 0.5; 1" dur="2s" begin="0s" repeatCount="3" fill="freeze" />
        </path>
      </g>

      <g id="wing1">
        <animateTransform attributeName="transform" type="translate" values="0, 5; 0, -5; 0, 5; 0, -5"
          keyTimes="0; 0.33; 0.66; 1" dur="3s" repeatCount="1" begin="0s" fill="freeze" />

        <path
          d="M123.23,173.34h9.16a3.29,3.29,0,0,1,3.29,3.3v5.71a3.29,3.29,0,0,1-3.29,3.3H115.57a1.32,1.32,0,0,1-1.32-1.32v-2a9,9,0,0,1,9-9"
          fill="#068e4d" />
        <path
          d="M123.23,173.34h9.16a3.29,3.29,0,0,1,3.29,3.3v5.71a3.29,3.29,0,0,1-3.29,3.3H115.57a1.32,1.32,0,0,1-1.32-1.32v-2A9,9,0,0,1,123.23,173.34Z"
          fill="none" stroke="#fff" stroke-linecap="round" stroke-linejoin="round" stroke-width="2" />
      </g>

      <g id="wing2">
        <animateTransform attributeName="transform" type="translate" values="0, 5; 0, -5; 0, 5; 0, -5"
          keyTimes="0; 0.33; 0.66; 1" dur="3s" repeatCount="1" begin="0s" fill="freeze" />

        <path
          d="M123.23,207.39h9.16a3.29,3.29,0,0,0,3.29-3.3v-5.71a3.29,3.29,0,0,0-3.29-3.3H115.57a1.32,1.32,0,0,0-1.32,1.32v2a9,9,0,0,0,9,9"
          fill="#068e4d" />
        <path
          d="M123.23,207.39h9.16a3.29,3.29,0,0,0,3.29-3.3v-5.71a3.29,3.29,0,0,0-3.29-3.3H115.57a1.32,1.32,0,0,0-1.32,1.32v2A9,9,0,0,0,123.23,207.39Z"
          fill="none" stroke="#fff" stroke-linecap="round" stroke-linejoin="round" stroke-width="2" />
      </g>

      <g id="wing3">
        <animateTransform attributeName="transform" type="translate" values="0, -5; 0, 5; 0, -5; 0, 5"
          keyTimes="0; 0.33; 0.66; 1" dur="3s" repeatCount="1" begin="0s" fill="freeze" />

        <path
          d="M123.23,173.34h9.16a3.29,3.29,0,0,1,3.29,3.3v5.71a3.29,3.29,0,0,1-3.29,3.3H115.57a1.32,1.32,0,0,1-1.32-1.32v-2a9,9,0,0,1,9-9"
          fill="#068e4d" />
        <path
          d="M123.23,173.34h9.16a3.29,3.29,0,0,1,3.29,3.3v5.71a3.29,3.29,0,0,1-3.29,3.3H115.57a1.32,1.32,0,0,1-1.32-1.32v-2A9,9,0,0,1,123.23,173.34Z"
          fill="none" stroke="#fff" stroke-linecap="round" stroke-linejoin="round" stroke-width="2" />
      </g>

      <g id="wing4">
        <animateTransform attributeName="transform" type="translate" values="0, -5; 0, 5; 0, -5; 0, 5"
          keyTimes="0; 0.33; 0.66; 1" dur="3s" repeatCount="1" begin="0s" fill="freeze" />

        <path
          d="M123.23,207.39h9.16a3.29,3.29,0,0,0,3.29-3.3v-5.71a3.29,3.29,0,0,0-3.29-3.3H115.57a1.32,1.32,0,0,0-1.32,1.32v2a9,9,0,0,0,9,9"
          fill="#068e4d" />
        <path
          d="M123.23,207.39h9.16a3.29,3.29,0,0,0,3.29-3.3v-5.71a3.29,3.29,0,0,0-3.29-3.3H115.57a1.32,1.32,0,0,0-1.32,1.32v2A9,9,0,0,0,123.23,207.39Z"
          fill="none" stroke="#fff" stroke-linecap="round" stroke-linejoin="round" stroke-width="2" />
      </g>
    </g>

    <path id="window" opacity="0"
      d="M204.25,231.88h-2.05a3.45,3.45,0,0,0-3.43,3.45v2.92a3.45,3.45,0,0,0,3.43,3.45h2.05a3.45,3.45,0,0,0,3.43-3.45v-2.92A3.44,3.44,0,0,0,204.25,231.88Z"
      fill="none" stroke="#fff" stroke-linecap="round" stroke-linejoin="round" stroke-width="2">
      <animate attributeName="opacity" from="0" to="1" dur="0.1s" begin="2.9s" repeatCount="1" fill="freeze" />
      <animate attributeName="d"
        from="M204.25,231.88h-2.05a3.45,3.45,0,0,0-3.43,3.45v2.92a3.45,3.45,0,0,0,3.43,3.45h2.05a3.45,3.45,0,0,0,3.43-3.45v-2.92A3.44,3.44,0,0,0,204.25,231.88Z"
        to="M275,225.43H257.87a17.6,17.6,0,0,1-17.52-17.58V170a17.6,17.6,0,0,1,17.52-17.58H275A17.6,17.6,0,0,1,292.51,170v37.83A17.61,17.61,0,0,1,275,225.43Z"
        dur="0.25s" begin="3s" repeatCount="1" fill="freeze" />
      <animate attributeName="stroke-width" values="2; 4" keyTimes="0; 1" dur="0.25s" repeatCount="1" fill="freeze"
        begin="3s" />
    </path>

    <defs>
      <clipPath id="window-mask">
        <path
          d="M275,225.43H257.87a17.6,17.6,0,0,1-17.52-17.58V170a17.6,17.6,0,0,1,17.52-17.58H275A17.6,17.6,0,0,1,292.51,170v37.83A17.61,17.61,0,0,1,275,225.43Z" />
      </clipPath>
    </defs>

    <g clip-path="url(#window-mask)">
      <g id="window-clouds" transform="translate(290 170) scale(0.6, 0.6)" opacity="0">
        <animateTransform attributeName="transform" type="scale" from="0.6, 0.6" to="0.6, 0.6" dur="2s" repeatCount="1"
          begin="3.25s" additive="sum" fill="freeze" />
        <animateTransform attributeName="transform" type="translate" from="0" to="-300" dur="2s"
          repeatCount="indefinite" begin="3.25s" additive="sum" />
        <animate attributeName="opacity" values="0; 1; 1; 0" keyTimes="0; 0.1; 0.9; 1" dur="2s" begin="3.25s"
          repeatCount="indefinite" />

        <line x1="28.18" y1="38.34" x2="91.09" y2="38.34" fill="none" stroke="#fff" stroke-linecap="round"
          stroke-miterlimit="10" stroke-width="2" />
        <path d="M41.77,97.54H77.06a12.4,12.4,0,1,1,24.8,0h17.93" transform="translate(-40.77 -69.46)" fill="none"
          stroke="#fff" stroke-linecap="round" stroke-miterlimit="10" stroke-width="2" />

        <line x1="218.19" y1="23.72" x2="257.97" y2="23.72" fill="none" stroke="#fff" stroke-linecap="round"
          stroke-miterlimit="10" stroke-width="2" />
        <path d="M278.75,82.91H251.39a12.4,12.4,0,1,0-24.8,0H208.65" transform="translate(-40.77 -69.46)" fill="none"
          stroke="#fff" stroke-linecap="round" stroke-miterlimit="10" stroke-width="2" />
        <line x1="246.24" y1="13.45" x2="268.43" y2="13.45" fill="none" stroke="#fff" stroke-linecap="round"
          stroke-miterlimit="10" stroke-width="2" />
      </g>
    </g>
  </g>

  <line id="cloud1" x1="68.95" y1="107.8" x2="131.86" y2="107.8" fill="none" stroke="#fff" stroke-linecap="round"
    stroke-miterlimit="10" stroke-width="2" opacity="0">
    <animateTransform attributeName="transform" attributeType="XML" type="translate" from="200" to="0" dur="2s"
      repeatCount="1" fill="freeze" />
    <animate attributeName="opacity" values="0;1;1;0" keyTimes="0;0.1;0.9;1" dur="2s" repeatCount="1" />
  </line>

  <g id="cloud2" opacity="0">
    <animateTransform attributeName="transform" type="translate" from="250" to="0" dur="2s" repeatCount="1" />
    <animate attributeName="opacity" values="0; 1; 1; 0" keyTimes="0; 0.1; 0.9; 1" dur="2s" repeatCount="1" />

    <path d="M41.77,97.54H77.06a12.4,12.4,0,1,1,24.8,0h17.93" fill="none" stroke="#fff" stroke-linecap="round"
      stroke-miterlimit="10" stroke-width="2" />
  </g>

  <line id="cloud3" x1="258.96" y1="93.19" x2="298.74" y2="93.19" fill="none" stroke="#fff" stroke-linecap="round"
    stroke-miterlimit="10" stroke-width="2" opacity="0">
    <animateTransform attributeName="transform" type="translate" from="1" to="-110" dur="1.5s" repeatCount="1"
      begin="1.5s" />
    <animate attributeName="opacity" values="0; 1; 1; 0" keyTimes="0; 0.1; 0.9; 1" dur="1.5s" repeatCount="1"
      begin="1.5s" />
  </line>

  <g id="cloud4" opacity="0">
    <animateTransform attributeName="transform" type="translate" from="1" to="-120" dur="1.5s" repeatCount="1"
      begin="1.5s" />
    <animate attributeName="opacity" values="0; 1; 1; 0" keyTimes="0; 0.1; 0.9; 1" dur="1.5s" repeatCount="1"
      begin="1.5s" />

    <path d="M278.75,82.91H251.39a12.4,12.4,0,1,0-24.8,0H208.65" fill="none" stroke="#fff" stroke-linecap="round"
      stroke-miterlimit="10" stroke-width="2" />
    <line x1="287.01" y1="82.91" x2="309.21" y2="82.91" fill="none" stroke="#fff" stroke-linecap="round"
      stroke-miterlimit="10" stroke-width="2" />
  </g>

  <g id="engine-lines" opacity="1">
    <animate attributeName="opacity" from="1" to="0" dur="0.2s" repeatCount="1" begin="3s" fill="freeze" />

    <line x1="106.25" y1="179.49" x2="84.05" y2="179.49" fill="none" stroke="#fff" stroke-linecap="round"
      stroke-miterlimit="10" stroke-width="2">
      <animate attributeName="x2" from="84.05" to="74" dur="0.25s" repeatCount="indefinite" />
    </line>

    <line x1="106.25" y1="201.23" x2="84.05" y2="201.23" fill="none" stroke="#fff" stroke-linecap="round"
      stroke-miterlimit="10" stroke-width="2">
      <animate attributeName="x2" from="84.05" to="74" dur="0.3s" repeatCount="indefinite" begin="0.075s" />
    </line>

    <line x1="106.25" y1="190.98" x2="68.77" y2="190.98" fill="none" stroke="#fff" stroke-linecap="round"
      stroke-miterlimit="10" stroke-width="2">
      <animate attributeName="x2" from="68.77" to="56" dur="0.275s" repeatCount="indefinite" begin="0.05s" />
    </line>
  </g>

  <g id="mountain">
    <path
      d="M289.94,327.88H244.88L212.8,296.58a1.89,1.89,0,0,0-2.44,0l-10.2,10.23a1.72,1.72,0,0,1-2.25,0l-19-20.17a2.4,2.4,0,0,0-3.1,0l-26.42,25.64a1.71,1.71,0,0,1-2.25,0l-2.63-2.92a1.71,1.71,0,0,0-2.31,0L124.63,329H80.78"
      fill="none" stroke="#fff" stroke-linecap="round" stroke-miterlimit="10" stroke-width="2">
      <animate attributeName="d" values="
          M 289.94 327.88 L 244.88 327.88 L 212.8 296.58 C 212.459 296.292 212.027 296.134 211.58 296.134 C 211.133 296.134 210.701 296.292 210.36 296.58 L 200.16 306.81 C 199.848 307.08 199.448 307.229 199.035 307.229 C 198.622 307.229 198.222 307.08 197.91 306.81 L 178.91 286.64 C 178.477 286.274 177.927 286.072 177.36 286.072 C 176.793 286.072 176.243 286.274 175.81 286.64 L 149.39 312.28 C 149.079 312.552 148.679 312.702 148.265 312.702 C 147.851 312.702 147.451 312.552 147.14 312.28 L 144.51 309.36 C 144.195 309.071 143.782 308.911 143.355 308.911 C 142.928 308.911 142.515 309.071 142.2 309.36 L 124.63 329 C 110.013 329 95.397 329 80.78 329;
          M 289.94 327.88 L 244.88 327.88 L 212.8 306.58 C 212.459 306.292 212.027 306.134 211.58 306.134 C 211.133 306.134 210.701 306.292 210.36 306.58 L 200.16 316.81 C 199.848 317.08 199.448 317.229 199.035 317.229 C 198.622 317.229 198.223 317.08 197.91 316.81 L 178.91 302.64 C 178.477 302.274 177.928 301.072 177.36 301.072 C 176.792 301.072 176.243 302.274 175.81 302.64 L 149.39 322.28 C 149.078 322.552 148.679 322.702 148.265 322.702 C 147.851 322.702 147.452 322.552 147.14 322.28 L 144.51 319.36 C 144.195 319.071 143.783 318.911 143.355 318.911 C 142.927 318.911 142.515 319.071 142.2 319.36 L 124.63 329 C 110.013 329 95.397 329 80.78 329;
          M 290.16 329 L 245.1 329 L 213.02 329 C 212.613 329 212.207 329 211.8 329 C 211.393 329 210.987 329 210.58 329 L 200.38 329 C 200.005 329 199.63 329 199.255 329 C 198.88 329 198.505 329 198.13 329 L 179.13 329 C 178.613 329 178.097 329 177.58 329 C 177.063 329 176.547 329 176.03 329 L 149.61 329 C 149.235 329 148.86 329 148.485 329 C 148.11 329 147.735 329 147.36 329 L 144.73 329 C 144.345 329 143.96 329 143.575 329 C 143.05 329 142.525 329 142 329 L 124.85 328.928 C 107.726 328.928 98.124 328.928 81 328.928
        " dur="0.25s" repeatCount="1" fill="freeze" begin="2.8s" />

    </path>
  </g>


  <g id="skis" opacity="0">
    <animateTransform attributeName="transform" type="translate" from="-150" to="-0" dur="0.2s" repeatCount="1"
      begin="3.1s" fill="freeze" />
    <animate attributeName="opacity" from="0" to="1" dur="0.2s" repeatCount="1" begin="3.1s" fill="freeze" />

    <path
      d="M91.14,327.79a2.2,2.2,0,0,1-2-2.36l13.66-193.17c1.1-15.49-4.8-21.92-8.75-24.47a1.35,1.35,0,0,1,.53-2.45C103,104,122.18,104,120,134.19L106.43,326.67a2.2,2.2,0,0,1-2.35,2Z"
      fill="#fff" />
    <path
      d="M124.5,328.17a2.2,2.2,0,0,1-2.17-2.23l2.24-193.63c0.19-15.53-6.07-21.61-10.16-23.91a1.35,1.35,0,0,1,.39-2.47c8.36-1.9,27.49-3,27.15,27.28l-2.25,192.93a2.2,2.2,0,0,1-2.22,2.18Z"
      fill="#fff" />
  </g>

  <g id="chair" opacity="0">
    <animateTransform attributeName="transform" type="translate" from="-150" to="-0" dur="0.25s" repeatCount="1"
      begin="3s" fill="freeze" />
    <animate attributeName="opacity" from="0" to="1" dur="0.25s" repeatCount="1" begin="3s" fill="freeze" />

    <path d="M257.5,259.82H196.76V245.63h55.09a9.92,9.92,0,0,1,9.9,9.93,4.26,4.26,0,0,1-4.25,4.25" fill="#a67ee5" />
    <path d="M257.5,259.82H196.76V245.63h55.09a9.92,9.92,0,0,1,9.9,9.93A4.26,4.26,0,0,1,257.5,259.82Z" fill="none"
      stroke="#fff" stroke-miterlimit="10" stroke-width="2" />
    <polygon points="185.47 328.31 171.5 328.31 165.19 286.72 179.16 286.72 185.47 328.31" fill="#a67ee5" />
    <polygon points="185.47 328.31 171.5 328.31 165.19 286.72 179.16 286.72 185.47 328.31" fill="none" stroke="#fff"
      stroke-miterlimit="10" stroke-width="2" />
    <polygon points="235.03 328.31 221.06 328.31 214.76 286.72 228.72 286.72 235.03 328.31" fill="#a67ee5" />
    <polygon points="235.03 328.31 221.06 328.31 214.76 286.72 228.72 286.72 235.03 328.31" fill="none" stroke="#fff"
      stroke-miterlimit="10" stroke-width="2" />
    <path
      d="M281.33,272.45H225.44a5.59,5.59,0,0,1-5.53-4.77l-10.86-72.24a17.71,17.71,0,0,0-12.49-31.31H141.48L141.16,267l15.77,23.35,47.19,8.39a12.3,12.3,0,0,0,4.22.75h73a13.53,13.53,0,0,0,0-27.06"
      fill="#a67ee5" />
    <path
      d="M281.33,272.45H225.44a5.59,5.59,0,0,1-5.53-4.77l-10.86-72.24a17.71,17.71,0,0,0-12.49-31.31H141.48L141.16,267l15.77,23.35,47.19,8.39a12.3,12.3,0,0,0,4.22.75h73A13.53,13.53,0,0,0,281.33,272.45Z"
      fill="none" stroke="#fff" stroke-miterlimit="10" stroke-width="2" />
    <path
      d="M162.42,267.69l-10.86-72.24a17.71,17.71,0,1,0-29-13.61,18,18,0,0,0,.79,5.25L138.65,289a12.36,12.36,0,0,0,12.21,10.54h73a13.53,13.53,0,0,0,0-27.05H167.95a5.62,5.62,0,0,1-5.53-4.78"
      fill="#a67ee5" />
    <path
      d="M162.42,267.69l-10.86-72.24a17.71,17.71,0,1,0-29-13.61,18,18,0,0,0,.79,5.25L138.65,289a12.36,12.36,0,0,0,12.21,10.54h73a13.53,13.53,0,0,0,0-27.05H167.95A5.62,5.62,0,0,1,162.42,267.69Z"
      fill="none" stroke="#fff" stroke-miterlimit="10" stroke-width="2" />
    <path d="M206.26,259.82h-72l-2.13-14.19H200.6a9.92,9.92,0,0,1,9.9,9.93,4.26,4.26,0,0,1-4.25,4.25" fill="#a67ee5" />
    <path d="M206.26,259.82h-72l-2.13-14.19H200.6a9.92,9.92,0,0,1,9.9,9.93A4.26,4.26,0,0,1,206.26,259.82Z" fill="none"
      stroke="#fff" stroke-miterlimit="10" stroke-width="2" />
    <line x1="151.57" y1="195.44" x2="209.05" y2="195.44" fill="none" stroke="#fff" stroke-linecap="round"
      stroke-miterlimit="10" stroke-width="2" />
  </g>

  <g id="plant" opacity="0" transform-origin="bottom">
    <animateTransform attributeName="transform" type="translate" from="-150" to="-0" dur="0.25s" repeatCount="1"
      begin="3s" fill="freeze" />
    <animateTransform attributeName="transform" type="rotate" values="0; -8; -2; -6; -5" keyTimes="0; 0.4; 0.6; 0.8; 1"
      dur="1.5s" repeatCount="1" begin="3.25s" fill="freeze" />
    <animate attributeName="opacity" from="0" to="1" dur="0.25s" repeatCount="1" begin="3s" fill="freeze" />

    <path
      d="M79.18,194A131,131,0,0,1,94.77,220.9a255,255,0,0,1-20.08-23.55,259,259,0,0,1-17.07-25.88A131.72,131.72,0,0,1,79.18,194"
      fill="#36e69a" />
    <path
      d="M80.94,214.39a127.19,127.19,0,0,1,22.8,20.49A242.09,242.09,0,0,1,77.9,219.17a235.86,235.86,0,0,1-23.42-18.7,119.82,119.82,0,0,1,26.46,13.92"
      fill="#36e69a" />
    <path
      d="M93.66,205.48a258.38,258.38,0,0,0,10.08,29.39,125.63,125.63,0,0,0-4.5-30.52,135.9,135.9,0,0,0-12.06-29.44,260.33,260.33,0,0,0,6.47,30.57"
      fill="#36e69a" />
    <path
      d="M107.32,213.52a250.14,250.14,0,0,0,2.06,30.67,119.93,119.93,0,0,0,3.76-30.05,131.24,131.24,0,0,0-4-31.36,238.1,238.1,0,0,0-1.87,30.74"
      fill="#25b774" />
    <path
      d="M83.08,229.56a121.93,121.93,0,0,1,26.29,14.64A225.91,225.91,0,0,1,81.21,235a228.11,228.11,0,0,1-26.37-12.69,113.61,113.61,0,0,1,28.25,7.29"
      fill="#25b774" />
    <path
      d="M88.06,243.83A118.11,118.11,0,0,1,115.62,255a211,211,0,0,1-28.78-5.6,220.87,220.87,0,0,1-27.42-9.33,114,114,0,0,1,28.65,3.73"
      fill="#25b774" />
    <path
      d="M118.71,224.79a238,238,0,0,0-3.1,30.25,117.11,117.11,0,0,0,8.82-28.54,127.44,127.44,0,0,0,1.42-31.19,213.92,213.92,0,0,0-7.15,29.48"
      fill="#25b774" />
    <path
      d="M98.86,262a118.24,118.24,0,0,1,27.07,12.34,212.3,212.3,0,0,1-28.53-6.79,220.78,220.78,0,0,1-27-10.45A114.06,114.06,0,0,1,98.86,262"
      fill="#068e4d" />
    <path
      d="M130.27,244.29a236.56,236.56,0,0,0-4.34,30.1,116.94,116.94,0,0,0,10-28.16,127.42,127.42,0,0,0,2.71-31.1,214.43,214.43,0,0,0-8.36,29.16"
      fill="#068e4d" />
    <path
      d="M108.9,280.69a118.21,118.21,0,0,1,26.54,13.47,213.62,213.62,0,0,1-28.23-8,221.65,221.65,0,0,1-26.55-11.57,113.82,113.82,0,0,1,28.24,6.08"
      fill="#068e4d" />
    <path
      d="M141,264.26a236.09,236.09,0,0,0-5.58,29.9,117.46,117.46,0,0,0,11.15-27.73,127.2,127.2,0,0,0,4-31A214.24,214.24,0,0,0,141,264.26"
      fill="#068e4d" />
    <path d="M92.62,217.67A529.26,529.26,0,0,1,149.48,328" fill="none" stroke="#36e69a" stroke-linecap="round"
      stroke-linejoin="round" stroke-width="2" />
  </g>
</svg>